<svg xmlns="http://www.w3.org/2000/svg" width="195" height="49.031" viewBox="0 0 195 49.031">
  <path id="Forma_16" class="cls-1" d="M447.244,341.136h16.995c2.748,0,6.664-.28,8.728.458v0.229h0.689v0.229h0.459v0.229H474.8v0.229h0.459v0.229h0.459c0.077,0.153.154,0.305,0.23,0.458h0.459c0.077,0.153.154,0.305,0.23,0.458H477.1l0.46,0.687h0.459l1.148,1.374,0.689,0.458v0.458l0.689,0.458v0.458l0.46,0.229c0.076,0.305.153,0.611,0.229,0.916h0.23v0.458h0.23l0.459,1.374h0.23v0.687h0.229a14.571,14.571,0,0,1,.46,5.038v2.061h-0.23v0.916h-0.23v0.916h-0.229V360.6h-0.23v0.687h-0.23c-0.076.306-.153,0.611-0.229,0.916a6.584,6.584,0,0,0-.919,1.6,2.9,2.9,0,0,1,1.148,1.374l0.689,0.458V366.1l0.46,0.229c0.076,0.305.153,0.61,0.229,0.916h0.23c0.077,0.305.153,0.61,0.23,0.916h0.229q0.115,0.687.23,1.374c0.429,1.095,1.464,4.5.919,6.412h-0.23v1.6h-0.23v0.916H484.45q-0.229,1.031-.46,2.061h-0.229q-0.23.687-.46,1.374h-0.229v0.458h-0.23q-0.114.344-.23,0.687l-0.459.229v0.458l-0.689.458c-2.086,2.93-4.868,4.355-8.727,5.5l-25.263.229c-0.579-1.123-.46-2.61-0.46-4.351V344.8A13.052,13.052,0,0,1,447.244,341.136Zm87.5,48.778H521.885l-1.837-5.5h-0.23V383.96h-0.229v-0.687a5.865,5.865,0,0,1-.689-1.832H502.593a0.4,0.4,0,0,1-.229.229q-0.229,1.031-.46,2.061h-0.229v0.458h-0.23q-0.115.687-.23,1.374h-0.229v0.458h-0.23q-0.115.687-.23,1.374H500.3v0.458h-0.23v0.687h-0.23c-0.272.654,0.056,0.688-.459,1.145v0.229H486.746a2.422,2.422,0,0,1-.229-0.916h0.229q0.115-.573.23-1.145h0.23v-0.687h0.229v-0.687h0.23v-0.458h0.23l0.459-2.061h0.23V383.5h0.229q0.23-1.031.46-2.061H489.5v-0.458h0.23l0.459-2.061c2.709-6.158,4.649-13.071,7.35-19.237L498,357.624h0.23v-0.458h0.229q0.115-.687.23-1.374h0.23v-0.458h0.229v-0.687h0.23q0.115-.687.23-1.374h0.229v-0.458h0.23l0.459-2.061h0.23V350.3h0.23l0.459-2.061h0.23v-0.458H501.9q0.115-.687.23-1.374h0.23v-0.458h0.229v-0.687h0.23v-0.687h0.23v-0.687h0.229v-0.458h0.23v-0.687h0.23q0.114-.687.229-1.374h0.23c0.554-.487,2.474-0.229,3.445-0.229h9.416c2.442,6.144,4.477,12.788,7.12,18.778l0.459,2.061h0.23v0.458H525.1q0.115,0.687.23,1.375h0.23v0.458h0.229q0.231,1.029.46,2.061h0.229v0.458h0.23l0.459,2.061h0.23V369.3h0.23q0.114,0.687.229,1.374h0.23v0.458h0.23l0.459,2.061h0.23v0.458h0.229q0.231,1.031.46,2.061h0.229v0.458h0.23q0.115,0.687.23,1.374h0.229v0.458h0.23l0.459,2.061h0.23v0.458h0.23q0.114,0.687.229,1.374h0.23v0.458h0.23l0.459,2.061h0.23v0.458h0.229q0.231,1.031.46,2.061h0.229V387.4h0.23q0.115,0.687.23,1.374h0.229v0.458h0.23Q534.862,389.571,534.746,389.914Zm16.536-37.1v7.1h17.685a13.933,13.933,0,0,1,.229,3.894v7.786H551.282v18.091a14.914,14.914,0,0,1-4.134.229H539.34c-0.425-1.164-.23-3.268-0.23-4.809v-43.74c1.83-.665,6.977-0.229,9.416-0.229h21.13a13.926,13.926,0,0,1,.229,3.893v7.557c-1.454.53-4.115,0.229-5.971,0.229H551.282Zm25.263-11.679h11.943c0.425,1.164.23,3.269,0.23,4.809v43.74a14.917,14.917,0,0,1-4.134.229h-8.039a15.693,15.693,0,0,1-.229-4.351V344.8A13.093,13.093,0,0,1,576.545,341.136Zm17.225,0h14.24a1.956,1.956,0,0,0,.459.458v0.458l0.459,0.229v0.458l0.46,0.229c0.076,0.305.153,0.611,0.229,0.916h0.23q0.114,0.343.23,0.687l0.459,0.229v0.458L611,345.487v0.458l0.46,0.229c0.076,0.229.153,0.458,0.229,0.687h0.23c0.076,0.305.153,0.611,0.23,0.916l0.459,0.229v0.458l0.459,0.229v0.458l0.46,0.229v0.458l0.459,0.229c0.076,0.305.153,0.611,0.23,0.916l0.459,0.229v0.458h0.23c0.076,0.229.153,0.458,0.229,0.687l0.46,0.229v0.458l0.459,0.229v0.458l0.459,0.229c0.077,0.306.153,0.611,0.23,0.916h0.23c0.076,0.229.153,0.458,0.229,0.687l0.46,0.229v0.458l0.229-.229a7.122,7.122,0,0,0,.919-1.6l0.459-.229v-0.458l0.459-.229v-0.458l0.46-.229v-0.458l0.459-.229c0.077-.305.153-0.61,0.23-0.916l0.459-.229v-0.458l0.459-.229v-0.458l0.46-.229v-0.458l0.459-.229c0.077-.305.153-0.611,0.23-0.916l0.459-.229v-0.458l0.459-.229v-0.458l0.46-.229v-0.458l0.459-.229,0.23-.687h0.229c0.077-.305.154-0.611,0.23-0.916l0.459-.229v-0.458h0.23l0.23-.687,0.459-.229v-0.458l0.459-.229q0.115-.343.23-0.687H641.77v0.229H642v0.458c-0.913.62-1.219,1.817-1.837,2.748l-0.46.229c-0.076.305-.153,0.611-0.229,0.916h-0.23l-0.23.687-0.459.229v0.458l-0.459.229v0.458l-0.46.229v0.458l-0.459.229-0.23.687h-0.229c-0.077.305-.153,0.611-0.23,0.916l-0.459.229v0.458H635.8l-0.23.687-0.459.229v0.458l-0.459.229-0.23.687h-0.23c-0.076.306-.153,0.611-0.229,0.916l-0.46.229v0.458h-0.229l-0.23.687-0.459.229v0.458l-0.46.229c-0.076.229-.153,0.458-0.229,0.687h-0.23q-0.114.459-.23,0.916l-0.459.229v0.458h-0.23c-0.076.229-.153,0.458-0.229,0.687l-0.46.229v0.458l-0.459.229q-0.114.344-.23,0.687h-0.229c-0.077.306-.153,0.611-0.23,0.916l-0.459.229v0.458h-0.23c-0.076.229-.153,0.459-0.23,0.687l-0.459.23a7.133,7.133,0,0,1-1.148,1.832c0.132,0.46-.028.2,0.229,0.458q0.115,0.343.23,0.687h0.23v0.458l0.459,0.229V367.7l0.459,0.229v0.458l0.46,0.229c0.076,0.229.153,0.458,0.229,0.687h0.23c0.077,0.305.153,0.61,0.23,0.916l0.459,0.229v0.458h0.23c0.076,0.229.153,0.458,0.229,0.687l0.46,0.229v0.458l0.459,0.229,0.23,0.687h0.229q0.115,0.457.23,0.916l0.459,0.229V374.8l0.46,0.229v0.458l0.459,0.229v0.458L633.5,376.4c0.077,0.305.154,0.611,0.23,0.916l0.459,0.229v0.458h0.23l0.23,0.687,0.459,0.229v0.458l0.459,0.229,0.23,0.687h0.23l0.229,0.916,0.46,0.229V381.9h0.229l0.23,0.687,0.459,0.229v0.458l0.46,0.229c0.076,0.229.153,0.458,0.229,0.687h0.23c0.077,0.305.153,0.611,0.23,0.916l0.459,0.229v0.458h0.23c0.076,0.229.153,0.458,0.229,0.687l0.46,0.229v0.458l0.459,0.229v0.458l0.459,0.229v0.458h0.23V389h0.23c0.076,0.229.153,0.458,0.229,0.687h-0.229c-0.61.535-2.854,0.229-3.905,0.229H627.3l-1.378-2.519-0.459-.229v-0.458l-0.459-.229c-0.077-.305-0.153-0.611-0.23-0.916l-0.459-.229v-0.458h-0.23q-0.114-.343-0.23-0.687l-0.459-.229V383.5l-0.459-.229-0.23-.687h-0.23c-0.076-.305-0.153-0.611-0.229-0.916l-0.46-.229v-0.458l-0.459-.229V380.3l-0.459-.229v-0.458l-0.46-.229c-0.076-.305-0.153-0.611-0.229-0.916l-0.46-.229v-0.458l-0.459-.229-1.378-2.519a6.272,6.272,0,0,0-1.148,1.832h-0.23v0.458h-0.229q-0.115.344-.23,0.687l-0.459.229v0.458l-0.46.229v0.458l-0.459.229c-0.077.305-.153,0.611-0.23,0.916l-0.459.229v0.458l-0.459.229V381.9l-0.46.229v0.458l-0.459.229c-0.077.305-.153,0.611-0.23,0.916l-0.459.229v0.458l-0.459.229v0.458l-0.46.229v0.458l-0.459.229v0.458l-0.459.229c-0.077.3-.154,0.611-0.23,0.916h-0.23c-0.076.229-.153,0.458-0.229,0.687l-0.46.229V389l-0.459.229-0.23.687H594l-0.23-.687a10.553,10.553,0,0,0,1.608-2.519l0.459-.229c0.077-.305.153-0.611,0.23-0.916h0.23c0.076-.229.153-0.458,0.229-0.687l0.46-.229v-0.458l0.459-.229V383.5l0.459-.229v-0.458l0.46-.229c0.076-.305.153-0.611,0.229-0.916h0.23l0.23-.687,0.459-.229V380.3l0.459-.229v-0.458l0.46-.229v-0.458l0.459-.229c0.076-.305.153-0.611,0.23-0.916h0.229l0.23-.687,0.459-.229V376.4l0.46-.229v-0.458l0.459-.229v-0.458l0.459-.229c0.077-.306.153-0.611,0.23-0.916h0.23c0.076-.229.153-0.458,0.229-0.687l0.46-.229V372.51l0.459-.229v-0.458l0.459-.229v-0.458l0.46-.229c0.076-.306.153-0.611,0.229-0.916h0.23q0.114-.343.23-0.687l0.459-.229v-0.458l0.459-.229V367.93l0.46-.229v-0.458l0.459-.229v-0.458h0.23V366.1c0.132-.235.611-0.114,0.459-0.687h-0.23l-0.229-.687h-0.23v-0.458l-0.459-.229v-0.458l-0.46-.23v-0.458l-0.459-.229V362.2l-0.459-.229q-0.115-.344-0.23-0.687h-0.23c-0.076-.305-0.153-0.61-0.229-0.916h-0.23l-0.23-.687-0.459-.229V359l-0.459-.229v-0.458l-0.46-.229v-0.458l-0.459-.229-0.23-.687h-0.229q-0.115-.458-0.23-0.916l-0.459-.229v-0.458l-0.46-.229v-0.458l-0.459-.229v-0.458l-0.459-.229q-0.115-.344-0.23-0.687h-0.23c-0.076-.305-0.153-0.61-0.229-0.916l-0.46-.229v-0.458l-0.459-.229v-0.458l-0.459-.229v-0.458l-0.46-.229c-0.076-.229-0.153-0.458-0.229-0.687h-0.23c-0.077-.305-0.153-0.611-0.23-0.916l-0.459-.229v-0.458l-0.459-.229v-0.458l-0.46-.229v-0.458l-0.459-.229v-0.458l-0.459-.229c-0.077-.305-0.153-0.611-0.23-0.916l-0.459-.229v-0.458l-0.46-.229v-0.458L594,342.51v-0.458l-0.459-.229C593.617,341.594,593.694,341.365,593.77,341.136ZM459.416,352.815v6.412c3.747,0.028,8.217.149,11.254-.458l0.459-.687h0.23a6.033,6.033,0,0,0,.459-3.206,2.1,2.1,0,0,1-.459-0.916l-1.378-1.145H459.416Zm47.541,16.947h7.579v-0.229h-0.23q-0.114-.687-0.229-1.374h-0.23v-0.687h-0.23v-0.458h-0.229v-0.687c-0.4-1-.981-2.208-1.378-3.207-0.077-.457-0.154-0.916-0.23-1.374h-0.23v-0.458h-0.229a10.092,10.092,0,0,1-.46-1.832c-0.261.261-.091,0-0.229,0.458-0.507.47-.187,0.483-0.46,1.145h-0.229v0.687h-0.23v0.687h-0.23v0.458h-0.229Q508.105,366.326,506.957,369.762Zm-47.541.458v8.015c4.115,0.028,9,.193,12.4-0.458l0.689-.916h0.23a6.149,6.149,0,0,0,.689-3.664,14.244,14.244,0,0,1-.689-1.6l-1.378-1.145H470.44a10.336,10.336,0,0,0-2.985-.229h-8.039Z" transform="translate(-447 -340.969)"/>
</svg>
