<svg xmlns="http://www.w3.org/2000/svg" width="591" height="806" viewBox="0 0 591 806">
  <defs>
    <style>
      .cls-1 {
      fill: #fee94c;
      fill-rule: evenodd;
      }
    </style>
  </defs>
  <path id="Forma_14" class="cls-1" d="M597.563,463.716c-0.311-2.049-.972-1.944-0.973-1.948v-18.5h-0.974V434.5h-0.973v-5.844h-0.974v-5.843H592.7v-3.9h-0.973v-4.869h-0.974v-3.9h-0.974v-2.922H588.8v-1.947h-0.974v-3.9h-0.974q-0.486-1.949-.973-3.9h-0.974v-2.921h-0.974v-1.948h-0.973l-3.895-4.87h-2.921v0.974l-4.868.974v0.974h-1.947q-1.461,1.947-2.921,3.9l-3.9.973q-0.486.975-.973,1.948l-5.842,1.948q-0.488.974-.974,1.948l-5.842,1.948q-0.486.974-.973,1.948l-5.842,1.947V408.2l-2.921.974-0.974,1.948-3.894.974q-0.488.974-.974,1.948l-3.894.974q-0.488.974-.974,1.947l-3.895.974q-0.486.975-.973,1.948l-3.895.974-0.973,1.948-3.895.974-0.974,1.948-3.894.974-0.974,1.947-3.894.974-0.974,1.948h-1.947v0.974H500.2l-0.973,1.948-3.895.974q-0.486.974-.974,1.947l-5.841,1.948v0.974l-2.921.974q-0.488.974-.974,1.948l-5.842,1.948q-0.486.974-.973,1.948h-1.948v0.973h-1.947q-0.486.975-.974,1.948l-2.921.974v0.974l-5.841,1.948-0.974,1.948-3.9.974-0.973,1.947-2.921.974v0.974h-1.947v0.974h-1.948l-1.947,1.948h-1.947l-0.974,1.948H444.7l-7.789,4.869v67.2c-1.891,2.185,0,14.5,0,19.478v55.513c0,11.562,1.755,27.219-.974,37.008V826.01H712.453q0.488-93,.974-186.017a62.556,62.556,0,0,1-6.816-3.9h-1.947l-0.974-1.948-5.842-1.948-0.973-1.948h-1.947l-1.948-1.948h-1.947l-0.974-1.947h-1.947v-0.974h-1.947l-1.948-1.948H682.27l-0.973-1.948h-1.948v-0.974H677.4q-0.488-.973-0.974-1.948l-3.894-.974-0.974-1.947-3.894-.974q-0.488-.974-0.974-1.948l-2.921-.974v-0.974l-5.842-1.948q-0.486-.974-0.973-1.948h-1.948v-0.973h-1.947l-1.947-1.948h-1.948l-0.973-1.948h-1.948v-0.974H644.3v-0.974h-1.947l-1.947-1.948h-1.948q-0.486-.974-0.973-1.948h-1.948v-0.973h-1.947l-1.947-1.948h-1.947q-0.487-.973-0.974-1.948h-1.947l-1.948-1.948h-1.947v-0.974l-3.894-.974q-0.488-.974-0.974-1.948l-2.921-.973v-0.974h-2.921q-0.486-.975-0.974-1.948l-5.841-1.948q-0.487-.973-0.974-1.948l-3.895-.974q-0.486-.973-0.973-1.948h-1.948v-0.973h-1.947l-1.947-1.948h-1.947l-0.974-1.948-5.842-1.948q-0.486-.974-0.974-1.948l-5.841-1.947-0.974-1.948-3.895-.974-0.973-1.948H570.3v-0.974h-1.947l-1.947-1.948H564.46q-0.488-.973-0.974-1.948l-5.842-1.947q-0.486-.975-0.973-1.948l-3.9-.974-0.974-1.948-5.842-.974c-1.612,2.328-.708.617-2.92,1.948v0.974h-1.948l-0.973,1.948h-1.948v0.974h-1.947v0.974h-1.947l-0.974,1.947-3.894.974q-0.488.973-.974,1.948l-5.842,1.948q-0.486.974-.974,1.948h-1.947v0.974h-1.947L515.778,565H513.83q-0.486.975-.973,1.948h-1.948v0.974h-1.947V568.9h-1.947l-1.947,1.948H503.12q-0.486.974-.973,1.948l-3.895.974q-0.486.974-.974,1.947l-3.894.974q-0.487.975-.974,1.948l-3.894.974q-0.488.973-.974,1.948H485.6v0.974l-5.842,1.948-0.974,1.947h-1.947l-1.947,1.948h-1.948l-0.973,1.948h-1.948V591.3h-1.947v0.974c-1.252.573-.485-0.493-0.973-0.974-1.073-1.209-1.8-13.647-.974-16.557H467.1V559.159c0-13.254-1.2-29.29.973-40.9,3.411-.655,5.329-2.5,7.789-3.9h1.948q0.486-.973.973-1.948l3.895-.974,0.973-1.947,3.895-.974q0.488-.974.974-1.948h1.947q0.486-.974.974-1.948h2.92v-0.974l2.921-.974q0.487-.974.974-1.947l5.842-1.948q0.486-.975.974-1.948l3.894-.974,0.974-1.948h1.947l1.947-1.948h1.948v-0.974h1.947v-0.973l3.894-.974q0.487-.975.974-1.948l3.9-.974,0.973-1.948,3.895-.974q0.486-.974.973-1.948h1.948v-0.974h1.947l1.947-1.947h1.948q0.486-.975.973-1.948h1.948V475.4h1.947l0.973-1.948h1.948v-0.974l2.921,0.974v0.974h1.947V475.4h1.947q0.488,0.974.974,1.948h1.947q0.488,0.974.974,1.948l3.894,0.973q0.488,0.975.974,1.948h1.947v0.974h1.948l1.947,1.948h1.947q0.488,0.974.974,1.948l3.894,0.974,0.974,1.948,3.895,0.973q0.486,0.975.973,1.948l5.842,1.948q0.488,0.974.974,1.948l5.842,1.948q0.486,0.974.973,1.948l5.842,1.947q0.488,0.975.974,1.948h1.947v0.974h1.947v0.974h1.947l1.948,1.948h1.947q0.488,0.974.974,1.948h1.947v0.973h1.947q0.488,0.975.974,1.948l5.842,1.948,0.973,1.948,3.895,0.974q0.486,0.973.974,1.948l5.841,1.947,0.974,1.948h1.947v0.974H640.4v0.974h1.947l1.947,1.948h1.947q0.488,0.973.974,1.948l3.895,0.974,0.973,1.947h1.948v0.974h1.947l1.947,1.948h1.947q0.488,0.973.974,1.948l5.842,1.948q0.486,0.974.974,1.948l3.894,0.974,0.974,1.947,3.894,0.974q0.488,0.973.974,1.948l5.842,1.948,0.973,1.948,3.895,0.974,0.974,1.947,5.842,1.948,0.973,1.948h1.947v0.974H699.8l1.947,1.948h1.947l0.974,1.948L710.506,565q0.486,0.975.973,1.948h1.948v0.974h1.947q0.486,0.974.974,1.948H718.3v0.974h1.947l1.947,1.948h1.948l0.973,1.947,3.895,0.974q0.486,0.975.974,1.948l5.841,1.948q0.487,0.973.974,1.948l5.842,1.948q0.486,0.973.974,1.947l5.841,1.948q0.487,0.975.974,1.948l3.9,0.974,0.973,1.948,5.842,1.948,0.974,1.947L766,597.141l0.974,1.948,3.894,0.974q0.488,0.973.974,1.948l3.895,0.974q0.486,0.973.973,1.948l3.895,0.974q0.486,0.973.974,1.947l3.894,0.974q0.488,0.974.974,1.948H788.4v0.974h1.947l1.948,1.948h1.947q0.486,0.973.974,1.948h1.947v0.974h1.947l1.947,1.947H803q0.486,0.975.973,1.948l5.842,1.948q0.488,0.974.974,1.948l5.842,1.948,0.973,1.947,3.895,0.974q0.486,0.975.973,1.948l5.842,1.948,0.974,1.948h1.947c2.5,1.406,4.385,3.121,7.789,3.895q0.488,37,.974,74.017c-4.112-.43-5.022-2.4-7.789-3.895l-3.895-.974v-0.974h-1.947v-0.974h-1.947v-0.974h-1.948l-1.947-1.948H818.58l-0.974-1.947h-1.947v-0.974h-1.947l-1.948-1.948h-1.947q-0.486-.973-0.974-1.948H806.9v-0.974h-1.947l-0.974-1.948h-1.947v-0.974h-1.947l-1.948-1.947h-1.947q-0.486-.975-0.973-1.948l-5.842-1.948v-0.974l-3.895-.974q-0.486-.973-0.974-1.948h-1.947v-0.974h-1.947V680.9l-2.921-.973V787.053c-2.808,3.2-.974,19.814-0.974,27.27v74.991l-405.034-.974c-2.621-7.093-1.025-20.333-.974-29.217,1.444-1.665.969-5.651,0.974-8.766V748.1q0.974-157.27,1.947-314.572l17.526-9.739,0.973-1.948h1.947l0.974-1.948h1.947q0.488-.974.974-1.948l3.9-.974,0.973-1.947h1.948q0.486-.975.973-1.948l5.842-1.948,0.974-1.948h1.947l0.974-1.948,3.894-.974,0.974-1.947,3.894-.974,0.974-1.948,2.921-.974v-0.974l5.842-1.948v-0.974l2.921-.974,0.973-1.947h1.948v-0.974h1.947l0.974-1.948,3.894-.974v-0.974l2.921-.974,0.974-1.948h1.947v-0.974h1.947l0.974-1.947,3.894-.974v-0.974l2.921-.974q0.488-.974.974-1.948h1.947v-0.974H467.1q0.486-.974.973-1.948l3.895-.974,0.973-1.947,2.921-.974v-0.974l3.895-.974v-0.974H481.7l0.974-1.948h1.947q0.488-.974.974-1.948l3.894-.973q0.488-.975.974-1.948l3.894-.974v-0.974l2.921-.974,0.974-1.948H500.2v-0.974h1.948q0.486-.974.973-1.948l3.895-.973v-0.974l2.921-.974q0.486-.975.973-1.948h1.948v-0.974H514.8q0.486-.974.974-1.948l3.894-.974,0.974-1.948c5.232-3.33,12.464-4.349,15.578-9.739,2.555-2.392,3.39-14.95.974-17.53-1.378-6.067-7.185-9.827-12.658-11.687h-4.868v-0.974l-6.815-.974v-0.974c-2.035-1.77-2.5-4.335-3.895-6.817h-0.974v-1.948h-0.973V290.36h-0.974v-1.947l-1.947-.974q-0.488-1.949-.974-3.9l-1.947-.974v-1.948H500.2v-1.947l-1.947-.974-1.947-5.844-1.948-.974v-1.948h-0.973v-1.947H492.41v-2.922h-0.973c-2.359-7.4,2.8-11.464,3.894-15.583a7.634,7.634,0,0,0,3.895-1.947v-0.974h1.947q0.486-.975.974-1.948h1.947l1.947-1.948h1.947v-0.974h1.948v-0.974l3.894-.974L514.8,236.8l3.895-.973q0.486-.975.973-1.948h1.947V232.9h1.948l1.947-1.948h1.947L528.435,229h1.947l1.947-1.948h1.948v-0.973h1.947v-0.974l3.895-.974q0.486-.975.973-1.948h1.948v-0.974h1.947l1.947-1.948h1.947q0.488-.973.974-1.948l3.895-.974,0.973-1.947c3.51-2.228,16.925-9.474,24.341-6.818v0.974c3.933,1.769,3.21.72,5.842,3.9h0.974V214.4h0.973v1.947h0.974v1.948l1.947,0.974v1.948h0.974q0.486,1.947.974,3.9l1.947,0.974q0.486,1.947.974,3.9l1.947,0.974V232.9h0.973v1.948l1.948,1.947v1.948l1.947,0.974q0.488,1.948.974,3.9h0.973v1.948h0.974c1.459,2.632,1.767,3.733,1.947,7.791-1.965,1.585-1.827,3.381-2.921,5.843h-0.973c-1.015,2.876-.249,11.336.973,12.661,1.182,5.267,5.567,9.468,9.737,11.687h1.947v0.974l8.763,1.948,14.6,26.3v2.922h0.974v1.948H640.4q0.486,2.434.973,4.869h0.974v3.9h0.974v2.922H644.3v1.948h0.974q1.459,8.277,2.921,16.556h0.973v5.843h0.974v3.9h0.974v15.583h0.973q-0.486,15.093-.973,30.191H650.14v3.895h-0.974v4.87h-0.973q-0.974,9.251-1.948,18.5-4.38,13.146-8.762,26.3h-0.974q-0.486,1.947-.974,3.895h-0.973v2.922h-0.974v1.948h-0.974v2.922h-0.973v1.947h-0.974v1.948h-0.973v1.948H628.72v1.948h-0.974q-0.486,1.461-.973,2.922c-1.957-.559-0.843.116-1.948-0.974-2.989-.7-4.544-2.608-6.815-3.9h-1.947q-0.487-.974-0.974-1.948l-5.842-1.948q-0.486-.974-0.974-1.947l-5.841-1.948q-0.488-.974-0.974-1.948ZM337.6,595.194q0.974,36.03,1.948,72.069c-3.446.714-4.406,2.494-6.816,3.895h-1.947l-0.974,1.948h-1.947l-0.974,1.948-3.894.974-0.974,1.948h-1.947v0.974l-7.789,3.895v71.1c-1.319,1.519-1.844,9.555-.974,12.66,2.9,10.329.974,26.828,0.974,38.957v13.634h-0.974v129.53l526.74,1.948c1.811,4.944.973,13.907,0.973,20.452V1013H249V643.889l5.842-1.948q0.486-.974.973-1.948l5.842-1.947,0.974-1.948h1.947v-0.974h1.948l1.947-1.948h1.947l0.974-1.948,5.842-1.948,0.973-1.947,5.842-1.948,0.974-1.948,5.842-1.948,0.973-1.948h1.947v-0.974h1.948l1.947-1.947h1.947l0.974-1.948,3.895-.974,0.973-1.948,5.842-1.948,0.974-1.948h1.947V606.88h1.947l1.948-1.947h1.947q0.486-.975.973-1.948H323v-0.974h1.947l1.947-1.948h1.948l0.973-1.948h1.947v-0.974Z" transform="translate(-249 -207)"/>
</svg>
